<svg width="24" height="24" viewBox="0 0 24 24" fill="none" xmlns="http://www.w3.org/2000/svg">
  <path d="M2 12C2 8 4 6 8 6C12 6 14 8 14 12C14 16 12 18 8 18C4 18 2 16 2 12Z" stroke="#10b981" stroke-width="2" fill="none"/>
  <path d="M10 12C10 10 11 9 13 9C15 9 16 10 16 12C16 14 15 15 13 15C11 15 10 14 10 12Z" stroke="#10b981" stroke-width="2" fill="none"/>
  <path d="M18 12C18 8 20 6 22 6" stroke="#10b981" stroke-width="2" stroke-linecap="round"/>
  <path d="M18 12C18 16 20 18 22 18" stroke="#10b981" stroke-width="2" stroke-linecap="round"/>
</svg>

