<svg width="24" height="24" viewBox="0 0 24 24" fill="none" xmlns="http://www.w3.org/2000/svg">
  <path d="M12 2C12 2 16 6 16 10C16 14 14 16 12 16C10 16 8 14 8 10C8 6 12 2 12 2Z" stroke="#8b5cf6" stroke-width="2" fill="none"/>
  <path d="M12 16V22" stroke="#8b5cf6" stroke-width="2" stroke-linecap="round"/>
  <circle cx="12" cy="20" r="1" fill="#8b5cf6"/>
  <path d="M4 12C4 12 6 10 8 10C10 10 12 12 12 12" stroke="#8b5cf6" stroke-width="1.5" fill="none" opacity="0.6"/>
  <path d="M20 12C20 12 18 10 16 10C14 10 12 12 12 12" stroke="#8b5cf6" stroke-width="1.5" fill="none" opacity="0.6"/>
</svg>


