<?xml version="1.0" encoding="utf-8"?>
<!-- Generator: Adobe Illustrator 27.9.0, SVG Export Plug-In . SVG Version: 6.00 Build 0)  -->
<svg version="1.1" id="logos" xmlns="http://www.w3.org/2000/svg" xmlns:xlink="http://www.w3.org/1999/xlink" x="0px" y="0px"
	 viewBox="0 0 240.6 107.2" style="enable-background:new 0 0 240.6 107.2;" xml:space="preserve">
<style type="text/css">
	.st0{fill:#E1251B;}
	.st1{fill:#FFA400;}
	.st2{fill:#FFFFFF;}
</style>
<g>
	<path d="M105.8,16.6L105.8,16.6L105.8,16.6c0-0.2,0-0.2-0.2-0.2c-0.1,0-0.3,0-0.7,0c-0.5,0-0.9,0-1.1,0H103h-0.6h-0.1l0,0
		c-0.1,0-0.1,0-0.1,0.1v0.1c0,0,0,0,0,0.1s0.1,0.2,0.4,0.2c0.5,0,0.8,0.1,0.9,0.3c0.1,0.1,0.1,0.5,0.1,1v3.2v0.3
		c0,1.2-0.1,1.7-0.4,2.1c-0.4,0.7-1.2,1.1-2.3,1.1c-1.1,0-2-0.4-2.3-1c-0.2-0.5-0.3-1-0.3-2.3v-3.5c0,0,0-0.1,0-0.3
		c0-0.1,0-0.3,0-0.3c0-0.2,0.1-0.3,0.2-0.4c0.2-0.1,0.4-0.2,1.1-0.2c0.1,0,0.2,0,0.2-0.2v-0.1v-0.1c0-0.1-0.1-0.1-0.2-0.1l0,0h-0.1
		h-0.2h-0.6h-1h-1.2h-0.4h-0.2c-0.1,0-0.1,0.1-0.1,0.2c0,0.2,0,0.3,0.2,0.3h0.2c0.5,0,0.7,0.2,0.8,0.4c0,0.2,0.1,0.3,0.1,0.8v3.6
		v0.9c0,0.7,0.1,1.3,0.3,1.7c0.2,0.3,0.5,0.7,0.9,0.9c0.6,0.4,1.4,0.5,2.3,0.5c1.6,0,2.9-0.6,3.4-1.5c0.4-0.7,0.5-1.1,0.5-2.8v-3.2
		c0-0.8,0.1-1.1,0.2-1.2c0.1-0.1,0.5-0.2,0.8-0.2C105.8,16.8,105.8,16.8,105.8,16.6"/>
	<path d="M119.1,16.5c0-0.1,0-0.1-0.2-0.1h-0.1c-0.1,0-0.2,0-0.4,0h-1c-0.3,0-0.6,0-1,0h-0.5c-0.1,0-0.1,0-0.2,0
		c-0.2,0-0.2,0-0.2,0.2s0,0.2,0.2,0.2c0.1,0,0.4,0,0.6,0.1c0.3,0,0.5,0.1,0.5,0.3c0.1,0.2,0.1,0.4,0.1,0.9l0.1,5.1l-5.3-6.9h-0.2
		h-0.6h-0.6h-0.7h-0.2l0,0c-0.2,0-0.2,0.1-0.2,0.3c0,0.1,0.1,0.2,0.2,0.2c0.5,0.1,0.8,0.2,1.1,0.5l-0.2,6v0.5c0,0.6-0.1,0.8-0.2,0.9
		c-0.1,0.1-0.2,0.1-0.5,0.2h-0.2c-0.3,0.1-0.3,0.1-0.3,0.3c0,0.1,0,0.2,0.2,0.2c0.1,0,0.1,0,0.2,0h0.5h0.9c0.3,0,0.6,0,1,0
		s0.5,0,0.6,0c0.3,0,0.3,0,0.3-0.2s0-0.2-0.2-0.3c-0.2,0-0.5-0.1-0.7-0.1c-0.3-0.1-0.4-0.2-0.5-0.4c-0.1-0.1-0.1-0.4-0.1-0.9v-0.2
		l0.1-5.3l5.7,7.3c0.1,0.2,0.2,0.2,0.2,0.2s0.1,0,0.2,0c0.2,0,0.2,0,0.3,0c0,0,0-0.1,0-0.3V18c0-0.7,0.1-1,0.3-1.2
		c0.1-0.1,0.3-0.1,0.8-0.2C119,16.8,119.1,16.8,119.1,16.5"/>
	<path d="M126.5,25.3L126.5,25.3L126.5,25.3c0-0.2-0.1-0.2-0.2-0.2H126c-0.6-0.1-0.8-0.2-0.8-0.8v-0.5v-5.7c0,0,0-0.2,0-0.5
		c0-0.1,0-0.2,0-0.3c0-0.2,0.1-0.3,0.2-0.4c0.1-0.1,0.5-0.2,0.9-0.2c0.1,0,0.2,0,0.2-0.2v-0.1c0-0.1,0-0.2-0.2-0.2h-0.2h-0.6h-0.9
		h-1.1h-0.6h-0.1c-0.1,0-0.1,0-0.1,0.1v0.1l0,0c0,0.2,0,0.2,0.1,0.2c0.4,0,0.8,0.1,0.9,0.2c0.2,0.1,0.2,0.3,0.2,1.1v5.7
		c0,0.7-0.1,1-0.2,1.1c-0.2,0.1-0.3,0.1-0.9,0.2c-0.1,0-0.2,0.1-0.2,0.2v0.1c0,0.1,0,0.1,0.2,0.1h0.2c0.1,0,0.3,0,0.4,0
		c0.4,0,0.7,0,0.9,0h0.6c0.2,0,0.5,0,0.9,0c0.2,0,0.4,0,0.5,0L126.5,25.3L126.5,25.3C126.5,25.5,126.5,25.5,126.5,25.3"/>
	<path d="M139.7,16.6c0-0.2,0-0.2-0.2-0.2h-0.1c-0.3,0-0.8,0-1.1,0h-0.2h-0.9c-0.3,0-0.4,0-0.5,0s-0.1,0-0.1,0
		c-0.1,0-0.2,0.1-0.2,0.2c0,0.1,0,0.2,0.2,0.2h0.2c0.5,0.1,0.5,0.1,0.6,0.1c0.1,0.1,0.1,0.1,0.1,0.3c0,0.1,0,0.3-0.1,0.5
		c-0.1,0.3-0.1,0.4-0.2,0.5l-0.2,0.4l-1.9,5.2l-2.2-5.5l-0.2-0.5c-0.1-0.3-0.1-0.4-0.1-0.5c0-0.2,0.2-0.3,0.8-0.4h0.2
		c0.1,0,0.2,0,0.2-0.2s0-0.2-0.1-0.2c0,0-0.1,0-0.2,0H133c-0.6,0-1,0-1.2,0h-1.1c-0.4,0-0.7,0-0.7,0c-0.1,0-0.2,0-0.2,0
		c-0.1,0-0.2,0-0.2,0.2s0,0.2,0.2,0.2c0.4,0,0.7,0.1,0.8,0.2c0.2,0.1,0.2,0.2,0.6,1.1l0.3,0.6l2.8,6.6l0.1,0.2
		c0.1,0.1,0.1,0.1,0.2,0.1h0.2h0.1c0.1,0,0.1,0,0.1-0.1v-0.1l2.8-6.8c0.1-0.3,0.2-0.5,0.2-0.5c0.1-0.2,0.2-0.5,0.4-0.8
		c0.1-0.2,0.2-0.3,0.2-0.4c0.1-0.1,0.3-0.2,0.6-0.2c0.2,0,0.2,0,0.3-0.1C139.7,16.8,139.7,16.7,139.7,16.6"/>
	<path d="M150,23.3c0-0.1-0.1-0.2-0.3-0.2c-0.1,0-0.1,0-0.2,0.2c-0.3,0.7-0.5,1-1,1.2s-0.9,0.3-1.8,0.3c-1,0-1.2-0.1-1.2-0.8v-0.4
		V21h0.3h0.7c1.2,0,1.5,0,1.6,0.2c0.1,0.1,0.1,0.4,0.2,0.8c0,0.1,0.1,0.1,0.1,0.1c0.2,0,0.3,0,0.3-0.2c0-0.1,0-0.1,0-0.2
		c0-0.4,0-0.8,0-1.2c0-0.3,0-0.6,0-0.9v-0.4c0-0.1,0-0.2-0.2-0.2c-0.1,0-0.2,0-0.2,0.2c0,0.7-0.2,0.9-1,0.9h-0.7h-0.8h-0.3v-3.4h0.3
		h0.7c0.9,0,1.5,0.1,1.8,0.2c0.3,0.1,0.5,0.5,0.7,1l0.1,0.2c0,0.1,0,0.1,0.1,0.1c0.2,0,0.3-0.1,0.3-0.2c0,0,0-0.1,0-0.2
		c0-0.2-0.1-0.5-0.1-1c0-0.1,0-0.3,0-0.4c0-0.3-0.1-0.4-0.4-0.4c-0.1,0-0.1,0-0.2,0h-1c-0.5,0-0.9,0-1.4,0h-1.2h-1
		c-0.5,0-0.8,0-0.9,0H143c-0.1,0-0.1,0-0.1,0.2l0,0v0.1c0,0.1,0,0.2,0.1,0.2h0.2c0.1,0,0.2,0,0.3,0s0.2,0.1,0.3,0.1
		c0.2,0.1,0.2,0.3,0.2,1.1v5.7v0.3c0,0.5,0,0.5-0.1,0.7c0,0.1-0.1,0.1-0.1,0.1c-0.2,0.1-0.4,0.2-0.9,0.2c-0.1,0-0.1,0-0.1,0.1v0.1
		V25c0,0.1,0,0.1,0.2,0.1h0.2h0.3c0.2,0,0.5,0,0.8,0c0.7,0,1.2,0,1.6,0h0.3h1.6h0.8c0.3,0,0.5,0,0.6,0h0.2c0.2,0,0.2-0.1,0.3-0.3
		c0-0.1,0-0.1,0-0.3l0.1-0.7c0.1-0.3,0.1-0.6,0.2-0.8C150,23.4,150,23.4,150,23.3"/>
	<path d="M158.6,18.6c0,1.2-0.9,2-2.3,2h-0.2H156v-3.8h0.1c0.1,0,0.2,0,0.2,0C157.8,16.8,158.6,17.4,158.6,18.6 M162.2,25.3
		c0-0.2,0-0.2-0.2-0.2c-0.5,0-1.1-0.4-1.5-0.9s-0.8-1.2-1.4-2.1c-0.4-0.8-0.5-0.9-0.9-1.4c1.2-0.4,1.8-1.2,1.8-2.3
		c0-0.8-0.4-1.4-1-1.8c-0.6-0.3-1.3-0.5-2.4-0.5c-0.8,0-2,0.1-3,0.2c-0.2,0-0.2,0-0.3,0.1c0,0-0.1,0.1-0.1,0.2c0,0.2,0,0.2,0.2,0.2
		h0.3c0.4,0,0.7,0.1,0.8,0.3s0.1,0.2,0.1,0.7v0.4v5.6v0.3c0,0.2,0,0.3,0,0.3c0,0.1,0,0.2-0.1,0.3c0,0.1-0.1,0.1-0.1,0.1
		c-0.1,0.1-0.4,0.1-0.6,0.2h-0.2c-0.1,0-0.2,0-0.2,0.2s0,0.2,0.2,0.2l0,0h0.3h0.5h1.1h1.1h0.4h0.2l0,0c0.1,0,0.1,0,0.2-0.1v-0.1l0,0
		c0-0.1,0-0.2-0.2-0.2h-0.3c-0.4,0-0.7-0.1-0.8-0.3c-0.1-0.1-0.1-0.2-0.1-0.6c0-0.2,0-0.3,0-0.3v-2.6h0.3h0.1c0.5,0,0.7,0.2,1.3,1.4
		c0.7,1.4,1.1,2,1.7,2.5c0.4,0.4,0.9,0.6,1.6,0.6c0.4,0,1-0.1,1.1-0.1C162.2,25.5,162.2,25.4,162.2,25.3"/>
	<path d="M171.6,23c0-0.7-0.2-1.3-0.7-1.7c-0.4-0.4-0.7-0.6-1.7-1.1c-1.1-0.6-1.4-0.7-1.7-1.1c-0.2-0.2-0.4-0.5-0.4-0.8
		c0-0.8,0.7-1.4,1.7-1.4c0.9,0,1.5,0.5,1.9,1.5c0,0.1,0.1,0.2,0.2,0.2c0.2,0,0.3-0.1,0.3-0.2l0,0v-0.1v-0.1l-0.1-1.1V17
		c0-0.3-0.1-0.3-0.2-0.4c-0.3-0.2-1.3-0.4-1.9-0.4c-1.8,0-3,1-3,2.5c0,0.7,0.3,1.4,0.9,1.8c0.4,0.3,0.8,0.6,1.4,0.9
		c1,0.5,1.4,0.8,1.7,1.1c0.2,0.3,0.4,0.6,0.4,1c0,0.9-0.8,1.6-1.9,1.6c-1,0-1.7-0.6-2.2-1.5l-0.1-0.3c0-0.1-0.1-0.1-0.1-0.1
		c-0.2,0-0.4,0.1-0.4,0.2v0.1v0.2l0.2,1.3c0,0.1,0,0.1,0,0.1c0,0.3,0.1,0.3,0.2,0.4c0.4,0.2,1.3,0.4,2,0.4
		C170.2,25.8,171.6,24.7,171.6,23"/>
	<path d="M179.2,25.3L179.2,25.3L179.2,25.3c0-0.2-0.1-0.2-0.2-0.2h-0.3c-0.6-0.1-0.8-0.2-0.8-0.8v-0.5v-5.7c0,0,0-0.2,0-0.5
		c0-0.1,0-0.2,0-0.3c0-0.2,0.1-0.3,0.2-0.4c0.1-0.1,0.5-0.2,0.9-0.2c0.1,0,0.2,0,0.2-0.2v-0.1c0-0.1,0-0.2-0.2-0.2h-0.2h-0.6h-0.9
		h-1.1h-0.6h-0.1c-0.1,0-0.1,0-0.1,0.1v0.1l0,0c0,0.2,0,0.2,0.1,0.2c0.4,0,0.8,0.1,0.9,0.2c0.2,0.1,0.2,0.3,0.2,1.1v5.7
		c0,0.7-0.1,1-0.2,1.1c-0.2,0.1-0.3,0.1-0.9,0.2c-0.1,0-0.2,0.1-0.2,0.2v0.1c0,0.1,0,0.1,0.2,0.1h0.2c0.1,0,0.3,0,0.4,0
		c0.5,0,0.7,0,0.9,0h0.6c0.2,0,0.5,0,0.9,0c0.2,0,0.4,0,0.5,0L179.2,25.3L179.2,25.3C179.2,25.5,179.2,25.5,179.2,25.3"/>
	<path d="M190.5,16.5c0-0.1-0.1-0.2-0.2-0.2h-0.1H190h-0.4c-0.1,0-0.4,0-1,0h-2.2h-1.9h-0.8h-0.5h-0.3l0,0c-0.2,0-0.2,0-0.2,0.1
		s0,0.1-0.1,0.4l-0.1,1.2c0,0.1,0,0.2,0,0.3l0,0c0,0.1,0.1,0.1,0.3,0.1c0.1,0,0.1,0,0.1-0.1c0.1-0.6,0.4-1,0.8-1.2
		c0.3-0.1,0.7-0.2,2-0.2h0.2v6.7c0,0.8,0,1-0.2,1.1c-0.1,0.1-0.5,0.2-0.9,0.2c-0.3,0-0.3,0-0.3,0.2v0.1c0,0.1,0,0.2,0.1,0.2h0.2
		c0.1,0,0.4,0,0.7,0c0.5,0,0.9,0,1.2,0h1.4c0.3,0,0.4,0,0.5,0h0.2c0.2,0,0.2,0,0.2-0.2v-0.1l0,0c0-0.1-0.1-0.1-0.4-0.1
		c-0.6,0-0.8-0.1-0.9-0.1c-0.3-0.1-0.3-0.3-0.3-1.1v-6.7h0.6c0.4,0,0.9,0,1.2,0c0.2,0,0.4,0.1,0.5,0.1c0.3,0.2,0.4,0.5,0.5,1
		c0,0.2,0.1,0.2,0.2,0.2c0.2,0,0.2,0,0.2-0.2V18v-0.3v-0.9v-0.1L190.5,16.5z"/>
	<path d="M202.8,16.6c0-0.2,0-0.2-0.1-0.2l0,0h-0.2H202c-0.3,0-0.6,0-0.9,0c-0.2,0-0.4,0-0.9,0h-0.5c-0.1,0-0.1,0-0.2,0l0,0
		c-0.1,0-0.2,0.1-0.2,0.2c0,0.1,0,0.2,0.1,0.2h0.1c0,0,0.1,0,0.3,0c0.5,0,0.7,0.1,0.7,0.4c0,0.1-0.2,0.5-0.4,0.9l-1.6,2.7l-1.7-2.8
		c-0.2-0.4-0.3-0.6-0.3-0.7c0-0.2,0.2-0.3,0.7-0.4h0.3c0.2,0,0.2-0.1,0.2-0.2c0-0.2,0-0.2-0.2-0.2h-0.3h-1.8c-0.5,0-0.9,0-1.2,0
		c-0.2,0-0.3,0-0.4,0h-0.2l0,0c-0.1,0-0.1,0-0.1,0.2s0,0.2,0.1,0.2h0.2c0.5,0.1,0.7,0.2,1.1,0.9c0,0.1,0.1,0.2,0.2,0.3l2.3,3.6v2.2
		c0,0.8,0,1-0.2,1.1s-0.4,0.2-1,0.2c-0.2,0-0.3,0-0.3,0.2v0.1c0,0.1,0,0.2,0.2,0.2l0,0c0.1,0,0.2,0,0.2,0h0.7h1.1h1.3h0.6h0.3l0,0
		c0.1,0,0.2,0,0.2-0.1v-0.1c0-0.2,0-0.2-0.4-0.2c-0.8-0.1-1.1-0.1-1.2-0.3c-0.1-0.1-0.1-0.2-0.1-0.6c0-0.2,0-0.3,0-0.4v-2.2l2.3-3.6
		c0.5-0.8,0.6-0.9,0.8-1c0.1-0.1,0.4-0.1,0.6-0.2C202.8,16.8,202.8,16.8,202.8,16.6"/>
	<path d="M221.1,21.2c0,2.3-1.3,3.8-3.2,3.8s-3.3-1.9-3.3-4.3c0-2.3,1.3-3.8,3.2-3.8S221.1,18.7,221.1,21.2 M222.6,20.5
		c0-2.6-1.9-4.4-4.5-4.4c-2.9,0-5,2.1-5,5.1c0,2.7,1.9,4.6,4.6,4.6c2.8,0,4.8-2,4.9-5C222.6,20.7,222.6,20.6,222.6,20.5"/>
	<path d="M232.8,18.3L232.8,18.3c0-0.1,0-0.1,0-0.2l-0.1-1.3v-0.2c0-0.2-0.1-0.2-0.2-0.2c0,0-0.1,0-0.2,0h-0.7h-1h-1.5
		c-0.5,0-1,0-1.5,0c-0.4,0-0.6,0-0.8,0s-0.3,0-0.3,0l0,0c-0.1,0-0.1,0-0.1,0.2c0,0.1,0,0.2,0.1,0.2c0,0,0.1,0,0.3,0
		c0.8,0,0.9,0.2,0.9,1.3v5.7c0,0.5,0,0.8-0.1,1s-0.4,0.3-0.8,0.3c-0.3,0-0.3,0-0.3,0.2s0,0.2,0.2,0.2h0.2h0.5h1.2h1.3
		c0.3,0,0.6,0,0.9,0h0.2c0.1,0,0.1,0,0.1-0.2l0,0v-0.1c0-0.1,0-0.2-0.3-0.2c-0.8-0.1-1.1-0.1-1.3-0.2c-0.2-0.1-0.2-0.3-0.2-0.7v-0.3
		v-2.7h0.1h0.6h0.7h0.6c0.1,0,0.3,0,0.4,0.1c0.1,0,0.1,0.1,0.1,0.1c0.1,0.1,0.2,0.4,0.2,0.6c0,0.3,0,0.4,0.2,0.4s0.3,0,0.3-0.2l0,0
		c0-0.1,0-0.2,0-0.3c0-0.3,0-0.6,0-0.7v-0.3c0-0.5,0-1,0-1.2c0-0.1,0-0.2,0-0.2c0-0.1,0-0.2-0.2-0.2s-0.2,0-0.2,0.2
		c0,0.5-0.2,0.7-0.4,0.8c-0.3,0.1-0.6,0.1-1.8,0.1h-0.6V17h0.3h0.4c1.1,0,1.6,0.1,1.9,0.2c0.3,0.1,0.5,0.4,0.6,0.8l0.1,0.3
		c0,0.1,0.1,0.1,0.1,0.1C232.6,18.5,232.8,18.4,232.8,18.3"/>
	<g>
		<path d="M133.6,44.4H128l2.7-7L133.6,44.4z M141.7,52L141.7,52v-0.3c0-0.2-0.1-0.3-0.4-0.3c-0.5,0-1-0.1-1.4-0.3
			c-0.4-0.2-0.5-0.4-0.8-1.1l-0.4-0.7l-6.5-15.1c-0.2-0.5-0.3-0.6-0.7-0.6h-0.3c-0.3,0-0.4,0-0.4,0.1c-0.1,0.1-0.2,0.3-0.3,0.5
			l-6.3,14.9c-0.4,1.1-0.6,1.4-0.9,1.7c-0.1,0.1-0.3,0.2-0.4,0.3c-0.2,0.1-0.5,0.2-1.1,0.3c-0.2,0-0.3,0.1-0.3,0.4
			c0,0.4,0.1,0.4,0.4,0.4h0.5c1.1,0,1.9-0.1,2.3-0.1c0.4,0,1.2,0.1,2.4,0.1h0.5c0.4,0,0.4-0.1,0.4-0.4c0-0.4-0.1-0.5-0.6-0.5
			c-1.1,0-1.7-0.3-1.7-0.8c0-0.2,0.2-0.8,0.4-1.3l1.3-3.4h6.6l1.4,3.5l0.2,0.6c0.1,0.1,0.1,0.2,0.1,0.4c0.1,0.2,0.1,0.3,0.1,0.4
			c0,0.3-0.4,0.5-1.2,0.6c-0.3,0-0.5,0-0.6,0.1c-0.1,0-0.2,0-0.2,0.1c-0.1,0.1-0.1,0.1-0.1,0.2V52c0,0.2,0.1,0.3,0.3,0.3h0.3h0.7
			h2.6c1.7,0,2.7,0,2.9,0h0.6C141.5,52.3,141.7,52.3,141.7,52"/>
		<path d="M164.2,51.9L164.2,51.9c0-0.4-0.1-0.5-0.6-0.5c-0.9,0-1.7-0.3-1.9-0.7c-0.1-0.3-0.2-1-0.2-1.9V37.5c0-2,0.1-2.3,1.3-2.4
			l0,0c0.4-0.1,0.5-0.1,0.6-0.1c0.5,0,0.6-0.1,0.6-0.5v-0.1c0-0.2-0.1-0.4-0.3-0.3h-0.4h-0.8c-0.9,0-1.4,0.1-1.7,0.1h-1.2
			c-0.4,0-1-0.1-1.8-0.1h-1h-0.2c-0.3,0-0.4,0.1-0.4,0.4v0.1c0,0.4,0.1,0.4,0.6,0.5c0.1,0,0.3,0,0.6,0.1l0,0
			c1.1,0.2,1.3,0.4,1.3,2.4V49c0,1.4-0.1,2-0.4,2.2c-0.2,0.1-0.5,0.2-0.8,0.3l0,0c-0.2,0.1-0.4,0.1-0.6,0.1c-0.5,0-0.6,0.1-0.6,0.5
			V52c0,0.2,0.1,0.3,0.3,0.3h0.4c0.2,0,0.5,0,0.8,0c0.9,0,1.4,0,1.7,0h1.2c0.4,0,1,0,1.8,0c0.5,0,0.8,0,1,0h0.4
			C164.1,52.3,164.2,52.3,164.2,51.9 M174.8,51.9c0-0.3-0.1-0.4-0.3-0.4l-0.2-0.1c-0.5-0.1-1.1-0.2-1.4-0.4c-0.5-0.3-0.9-0.7-2-1.9
			l-6.2-6.9l4.5-4.4c1.3-1.3,2.2-2,2.8-2.3c0.4-0.2,0.8-0.3,1.6-0.4C174,35,174,35,174,34.7v-0.2c0-0.2-0.1-0.3-0.3-0.3h-0.4
			c-0.1,0-0.4,0-0.7,0c-0.8,0-1.4,0-1.8,0h-2.3h-0.9c-0.2,0-0.3,0-0.4,0c-0.2,0-0.3,0.1-0.3,0.4c0,0.4,0.1,0.5,0.4,0.5
			c0.9,0,1.2,0.2,1.2,0.5c0,0.4-0.4,0.9-1.7,2.2l-5,5.2l5.4,6.4c0.7,0.8,0.9,1.2,0.9,1.4c0,0.4-0.4,0.6-1.3,0.7
			c-0.4,0-0.5,0.1-0.5,0.4c0,0.4,0.1,0.5,0.4,0.5l0,0h0.5c0.2,0,0.5,0,1,0c1,0,1.9,0,2.5,0s1.3,0,2.3,0h0.8h0.4
			C174.7,52.3,174.8,52.3,174.8,51.9"/>
		<path d="M188.8,44.4h-5.5l2.7-7L188.8,44.4z M196.8,52L196.8,52v-0.3c0-0.2-0.1-0.3-0.4-0.3c-0.5,0-1-0.1-1.4-0.3
			c-0.4-0.2-0.5-0.4-0.8-1.1l-0.4-0.7l-6.5-15.1c-0.2-0.5-0.3-0.6-0.7-0.6h-0.3c-0.3,0-0.4,0-0.4,0.1c-0.1,0.1-0.2,0.3-0.3,0.5
			l-6.3,14.9c-0.4,1.1-0.6,1.4-0.9,1.7c-0.1,0.1-0.3,0.2-0.4,0.3c-0.2,0.1-0.5,0.2-1.1,0.3c-0.2,0-0.3,0.1-0.3,0.4
			c0,0.4,0.1,0.4,0.4,0.4h0.5c1.1,0,1.9-0.1,2.3-0.1c0.4,0,1.2,0.1,2.4,0.1h0.5c0.4,0,0.4-0.1,0.4-0.4c0-0.4-0.1-0.5-0.6-0.5
			c-1.1,0-1.7-0.3-1.7-0.8c0-0.2,0.2-0.8,0.4-1.3l1.3-3.4h6.6l1.4,3.5l0.2,0.6c0.1,0.1,0.1,0.2,0.1,0.4c0.1,0.2,0.1,0.3,0.1,0.4
			c0,0.3-0.4,0.5-1.2,0.6c-0.3,0-0.5,0-0.6,0.1c-0.1,0-0.2,0-0.2,0.1c-0.1,0.1-0.1,0.1-0.1,0.2V52c0,0.2,0.1,0.3,0.3,0.3h0.3h0.7
			h2.6c1.7,0,2.7,0,2.9,0h0.6C196.7,52.3,196.8,52.3,196.8,52"/>
		<path d="M230.2,43.7c0,4.5-2.6,7.7-6.4,7.7c-3.8,0-6.7-3.7-6.7-8.7c0-4.6,2.5-7.6,6.4-7.6C227.3,35,230.2,38.7,230.2,43.7
			 M233.1,42.4c0-5.1-3.8-8.8-9-8.8c-5.8,0-10,4.3-10,10.1c0,5.4,3.8,9.1,9.1,9.1c5.6,0,9.6-4,9.8-10
			C233.1,42.7,233.1,42.5,233.1,42.4"/>
		<path d="M152.3,51.9L152.3,51.9v-0.2c0-0.1-0.1-0.2-0.4-0.2l-0.7-0.1c-1.3-0.2-1.6-0.4-1.6-1.6v-0.9V37.5c0-0.1,0-0.4,0.1-0.9
			c0-0.2,0-0.4,0-0.5c0-0.3,0.2-0.6,0.4-0.7c0.3-0.2,0.9-0.3,1.7-0.4c0.3,0,0.3-0.1,0.3-0.4v-0.1c0-0.2-0.1-0.4-0.3-0.3h-0.5h-1.2
			h-1.8H146h-1.2c-0.1,0-0.1,0-0.2,0c-0.2,0-0.3,0.1-0.3,0.2v0.1v0.1c0,0.4,0.1,0.4,0.3,0.4c0.8,0.1,1.5,0.2,1.7,0.4
			c0.4,0.3,0.4,0.7,0.4,2.2V49c0,1.4-0.1,2-0.4,2.2c-0.3,0.2-0.7,0.3-1.7,0.4c-0.3,0-0.3,0.1-0.3,0.5V52c0,0.2,0.1,0.3,0.3,0.3h0.4
			c0.3,0,0.6,0,0.8,0c0.9,0,1.5,0,1.7,0h1.3c0.4,0,1,0,1.8,0c0.4,0,0.7,0,0.9,0h0.4l0,0C152.2,52.3,152.3,52.3,152.3,51.9"/>
		<path d="M125,34.5c0-0.3-0.1-0.4-0.4-0.4c-0.1,0-0.1,0-0.3,0h-0.8h-1.8H120c-0.5,0-0.9,0-1.1,0c-0.2,0-0.3,0-0.4,0
			c-0.2,0-0.4,0.1-0.4,0.5c0,0.2,0.1,0.3,0.2,0.4c0.1,0.1,0.1,0,0.7,0.1c1.1,0.1,1.4,0.3,1.4,0.9c0,0.3-0.1,0.7-0.2,1.2l-0.2,0.7
			l-3.4,10.6L113.1,38l-0.3-0.8c-0.2-0.6-0.3-0.9-0.3-1.2c0-0.6,0.4-0.8,1.6-0.8h0.5c0.3,0,0.4-0.1,0.4-0.4c0-0.4-0.1-0.5-0.6-0.5
			c-0.1,0-0.5,0-1.4,0.1h-1.7h-2h-0.2c-0.8,0-1.1,0-1.5,0c-0.1,0-0.1,0-0.2,0c-0.3,0-0.4,0.1-0.4,0.4c0,0.4,0.1,0.5,0.4,0.5
			c1,0.1,1.3,0.2,1.6,0.5c0.2,0.3,0.5,0.8,0.7,1.5l-3.8,11.3l-3.8-10.8l-0.2-0.5c-0.2-0.6-0.3-0.8-0.3-1.1c0-0.6,0.4-0.8,1.7-0.9
			h0.4c0.3,0,0.4-0.1,0.4-0.4c0-0.4-0.1-0.5-0.4-0.5h-0.4h-1.1H100h-2.1h-1.1c-0.1,0-0.3,0-0.3,0c-0.4,0-0.4,0.1-0.4,0.5
			c0,0.2,0,0.3,0.1,0.4c0.1,0,0.1,0.1,0.4,0.1c1,0.1,1.3,0.2,1.6,0.6c0.2,0.2,0.2,0.4,0.5,1c0.2,0.5,0.4,0.9,0.5,1.1l5.3,14.2
			c0.3,0.8,0.3,0.8,0.6,0.8h0.6c0.2,0,0.3-0.1,0.5-0.5l4.4-13.1l4.6,12.8c0.2,0.6,0.4,0.8,0.7,0.8h0.5c0.2,0,0.3-0.1,0.5-0.4
			l0.1-0.4l5.2-14.1l0.5-1.3c0.2-0.6,0.3-0.8,0.5-1c0.3-0.3,0.6-0.4,1.3-0.5c0.5-0.1,0.5-0.1,0.6-0.2C125,34.8,125,34.7,125,34.5"/>
		<path d="M212.8,34.4c0-0.2-0.1-0.3-0.4-0.3h-0.2h-0.4h-0.9c-0.2,0-0.9,0-2,0h-4.4h-3.8H199h-1h-0.6h-0.1c-0.3,0-0.4,0-0.4,0.1
			c-0.1,0.1-0.1,0.2-0.1,0.8l-0.2,2.4c0,0.2,0,0.4,0,0.5l0,0c0,0.2,0.2,0.3,0.7,0.3c0.1,0,0.2-0.1,0.2-0.2c0.2-1.1,0.8-2,1.6-2.3
			c0.7-0.3,1.4-0.4,3.9-0.4h0.4v13.4c0,1.5-0.1,1.9-0.5,2.2c-0.3,0.2-1,0.3-1.9,0.4c-0.5,0-0.6,0.1-0.6,0.4V52
			c0,0.3,0.1,0.4,0.3,0.4h0.3c0.3,0,0.7,0,1.3,0c1,0,1.9,0,2.5,0h2.8c0.5,0,0.8,0,0.9,0h0.4c0.4,0,0.5,0,0.5-0.4v-0.2v-0.1
			c0-0.2-0.1-0.2-0.8-0.3c-1.1-0.1-1.5-0.2-1.8-0.3c-0.5-0.2-0.6-0.6-0.6-2.2V35.4h1.1c0.8,0,1.8,0,2.3,0.1c0.4,0.1,0.7,0.1,1,0.3
			c0.5,0.3,0.9,0.9,1,2c0.1,0.4,0.1,0.5,0.5,0.5s0.4-0.1,0.5-0.3v-0.4V37l0.1-1.9v-0.3L212.8,34.4z"/>
	</g>
</g>
<g>
	<path class="st0" d="M96.6,86.4h6l-0.6,2.1h-0.2c0.1-0.3,0.1-0.6,0.1-0.8c0-0.3-0.1-0.5-0.3-0.6c-0.1-0.1-0.5-0.2-1-0.2H100
		l-1.6,5.4c-0.2,0.7-0.3,1.1-0.3,1.3c0,0.1,0.1,0.3,0.2,0.4c0.1,0.1,0.3,0.1,0.7,0.1h0.3l-0.1,0.2h-3.4l0.1-0.2h0.2
		c0.3,0,0.5,0,0.7-0.1c0.1-0.1,0.2-0.2,0.3-0.4c0.1-0.2,0.2-0.5,0.4-1.1l1.6-5.6h-0.5c-0.5,0-0.8,0.1-1.1,0.2
		c-0.3,0.1-0.5,0.3-0.7,0.5s-0.3,0.5-0.4,0.9h-0.2L96.6,86.4z"/>
	<path class="st0" d="M101.8,92c0,0.2,0,0.4,0,0.5c0,0.3,0.1,0.6,0.4,0.9s0.5,0.4,0.9,0.4c0.3,0,0.5-0.1,0.8-0.2
		c0.3-0.1,0.6-0.4,1.1-0.8l0.1,0.2c-0.9,0.9-1.8,1.4-2.6,1.4c-0.6,0-1-0.2-1.3-0.5c-0.3-0.4-0.4-0.7-0.4-1.2c0-0.6,0.2-1.2,0.5-1.8
		c0.4-0.6,0.8-1.1,1.3-1.4s1.1-0.5,1.7-0.5c0.4,0,0.7,0.1,0.9,0.2c0.2,0.2,0.3,0.4,0.3,0.6c0,0.3-0.1,0.6-0.4,0.9
		c-0.3,0.4-0.8,0.7-1.5,0.9C103.2,91.8,102.6,92,101.8,92z M101.9,91.8c0.6-0.1,1-0.2,1.4-0.3c0.5-0.2,0.8-0.5,1.1-0.8
		c0.2-0.3,0.4-0.6,0.4-0.8c0-0.2-0.1-0.3-0.2-0.4c-0.1-0.1-0.2-0.2-0.4-0.2c-0.4,0-0.8,0.2-1.3,0.6
		C102.4,90.3,102.1,90.9,101.9,91.8z"/>
	<path class="st0" d="M112.4,89.8l1.9,3c0.3,0.5,0.6,0.9,0.9,1s0.5,0.2,0.9,0.2l-0.1,0.2h-3.3l0.1-0.2c0.3,0,0.5-0.1,0.6-0.2
		c0.1-0.1,0.2-0.2,0.2-0.3s0-0.2-0.1-0.3c0-0.1-0.1-0.3-0.3-0.6l-1.6-2.5l-0.8,2.6c-0.1,0.4-0.2,0.7-0.2,0.8s0.1,0.3,0.2,0.3
		c0.1,0.1,0.4,0.1,0.8,0.2l-0.1,0.2h-3.1l0.1-0.2c0.3,0,0.5,0,0.6-0.1c0.2-0.1,0.3-0.2,0.3-0.3c0.1-0.2,0.2-0.5,0.4-1l1.4-4.7
		c0.1-0.4,0.2-0.7,0.2-0.9c0-0.2,0-0.3-0.1-0.4s-0.3-0.1-0.6-0.1h-0.1l0.1-0.2h2.9l-0.1,0.2c-0.2,0-0.4,0-0.5,0.1
		c-0.2,0.1-0.3,0.2-0.4,0.3s-0.2,0.4-0.3,1l-0.6,2l2.8-2.1c0.4-0.3,0.6-0.5,0.7-0.7c0.1-0.1,0.1-0.2,0.1-0.3c0-0.1,0-0.1-0.1-0.2
		s-0.2-0.1-0.3-0.1l0.1-0.2h2.5l-0.1,0.2c-0.3,0-0.5,0.1-0.7,0.2s-0.4,0.2-0.6,0.3c-0.1,0-0.4,0.3-1.1,0.9L112.4,89.8z"/>
	<path class="st0" d="M122.1,89.1l-1,3.4c-0.2,0.5-0.2,0.8-0.2,1c0,0.1,0,0.1,0,0.2h0.1c0.1,0,0.1,0,0.2-0.1
		c0.1-0.1,0.3-0.3,0.6-0.7L122,93c-0.3,0.5-0.6,0.8-0.9,1.1c-0.2,0.1-0.4,0.2-0.6,0.2c-0.2,0-0.3,0-0.4-0.1
		c-0.1-0.1-0.1-0.2-0.1-0.3s0-0.3,0.1-0.5c0.1-0.3,0.2-0.9,0.5-1.9c-0.7,1.1-1.2,1.8-1.6,2.2c-0.4,0.4-0.9,0.6-1.2,0.6
		c-0.2,0-0.3-0.1-0.5-0.2c-0.1-0.1-0.2-0.3-0.2-0.5c0-0.3,0.1-0.7,0.3-1.3l0.5-1.8c0.1-0.4,0.2-0.7,0.2-0.8v-0.1H118
		c-0.1,0-0.2,0-0.2,0.1c-0.1,0.1-0.3,0.3-0.5,0.6l-0.2-0.1c0.3-0.4,0.6-0.8,0.9-1c0.2-0.2,0.5-0.2,0.7-0.2c0.1,0,0.3,0,0.4,0.1
		c0.1,0.1,0.1,0.2,0.1,0.4c0,0.2-0.1,0.6-0.2,1.1l-0.5,1.9c-0.2,0.5-0.2,0.8-0.2,1c0,0.1,0,0.1,0.1,0.2c0,0,0.1,0.1,0.2,0.1
		c0.1,0,0.3-0.1,0.5-0.2s0.5-0.4,0.8-0.8c0.3-0.4,0.6-0.8,0.8-1.2s0.5-1,0.7-1.8l0.1-0.4h0.6V89.1z"/>
	<path class="st0" d="M123.1,89.3l2-0.3l-0.8,2.8c0.7-1.2,1.3-2,1.8-2.4c0.3-0.3,0.6-0.4,0.8-0.4c0.1,0,0.2,0,0.3,0.1
		s0.1,0.2,0.1,0.3c0,0.3-0.1,0.5-0.2,0.7c-0.1,0.2-0.2,0.3-0.4,0.3c-0.1,0-0.2,0-0.2-0.1c-0.1-0.1-0.1-0.1-0.1-0.3
		c0-0.1,0-0.1-0.1-0.1h-0.1c-0.1,0-0.1,0-0.2,0c-0.1,0.1-0.3,0.2-0.5,0.5c-0.3,0.4-0.7,0.9-1,1.5c-0.2,0.3-0.3,0.5-0.4,0.9
		c-0.2,0.4-0.3,0.7-0.3,0.8l-0.2,0.7h-0.9l1.1-3.6c0.1-0.4,0.2-0.7,0.2-0.9c0-0.1,0-0.1-0.1-0.2s-0.2-0.1-0.3-0.1s-0.2,0-0.4,0.1
		L123.1,89.3z"/>
	<path class="st0" d="M132.6,89l-1.1,3.9l-0.1,0.5c0,0.1,0,0.1,0,0.1c0,0.1,0,0.1,0.1,0.2l0.1,0.1c0.1,0,0.1,0,0.2-0.1
		c0.2-0.1,0.4-0.3,0.6-0.7l0.2,0.1c-0.3,0.4-0.5,0.7-0.8,0.9s-0.5,0.3-0.8,0.3c-0.2,0-0.3,0-0.4-0.1c-0.1-0.1-0.1-0.2-0.1-0.4
		s0-0.4,0.1-0.7l0.1-0.4c-0.5,0.7-1,1.1-1.4,1.4c-0.3,0.2-0.6,0.3-0.9,0.3c-0.3,0-0.5-0.1-0.7-0.4c-0.2-0.2-0.3-0.6-0.3-1
		c0-0.6,0.2-1.3,0.6-1.9c0.4-0.7,0.8-1.2,1.4-1.6c0.4-0.3,0.9-0.5,1.3-0.5c0.2,0,0.4,0.1,0.6,0.2c0.2,0.1,0.3,0.3,0.4,0.6l0.2-0.7
		L132.6,89z M130.6,89.3c-0.2,0-0.5,0.1-0.8,0.3c-0.4,0.3-0.7,0.8-1.1,1.5c-0.3,0.6-0.5,1.2-0.5,1.7c0,0.3,0.1,0.5,0.2,0.6
		c0.1,0.2,0.3,0.2,0.5,0.2c0.4,0,0.9-0.3,1.4-0.9c0.7-0.8,1-1.7,1-2.5c0-0.3-0.1-0.6-0.2-0.7S130.8,89.3,130.6,89.3z"/>
	<path class="st0" d="M138.9,89.9h3.6l0.6-1.9c0.1-0.4,0.2-0.7,0.2-0.9c0-0.1,0-0.2-0.1-0.3c0-0.1-0.1-0.1-0.2-0.2s-0.3-0.1-0.6-0.1
		l0.1-0.2h3.2l-0.1,0.2c-0.3,0-0.5,0-0.6,0.1c-0.2,0.1-0.3,0.2-0.4,0.3c-0.1,0.2-0.3,0.5-0.4,1l-1.4,4.7c-0.1,0.4-0.2,0.7-0.2,0.8
		c0,0.1,0.1,0.3,0.2,0.3c0.1,0.1,0.3,0.1,0.7,0.2l-0.1,0.2h-3.1l0.1-0.2c0.3,0,0.5,0,0.6-0.1c0.2-0.1,0.3-0.2,0.3-0.3
		c0.1-0.2,0.2-0.5,0.4-1l0.7-2.4h-3.6l-0.7,2.4c-0.1,0.4-0.2,0.7-0.2,0.8s0.1,0.3,0.2,0.3c0.1,0.1,0.3,0.1,0.7,0.2V94h-3.1l0.1-0.2
		c0.3,0,0.5,0,0.6-0.1c0.2-0.1,0.3-0.2,0.3-0.3c0.1-0.2,0.2-0.5,0.4-1l1.4-4.7c0.1-0.4,0.2-0.7,0.2-0.9c0-0.1,0-0.2-0.1-0.3
		c0-0.1-0.1-0.1-0.2-0.2c-0.1,0-0.3-0.1-0.6-0.1l0.1-0.2h3.1l-0.1,0.2c-0.3,0-0.4,0-0.6,0.1c-0.2,0.1-0.3,0.2-0.4,0.3
		c-0.1,0.2-0.2,0.5-0.4,1L138.9,89.9z"/>
	<path class="st0" d="M150.1,89.1l-1,3.4c-0.2,0.5-0.2,0.8-0.2,1c0,0.1,0,0.1,0,0.2h0.1c0.1,0,0.1,0,0.2-0.1
		c0.1-0.1,0.3-0.3,0.6-0.7L150,93c-0.3,0.5-0.6,0.8-0.9,1.1c-0.2,0.1-0.4,0.2-0.6,0.2c-0.2,0-0.3,0-0.4-0.1
		c-0.1-0.1-0.1-0.2-0.1-0.3s0-0.3,0.1-0.5c0.1-0.3,0.2-0.9,0.5-1.9c-0.7,1.1-1.2,1.8-1.6,2.2c-0.4,0.4-0.9,0.6-1.2,0.6
		c-0.2,0-0.3-0.1-0.5-0.2c-0.1-0.1-0.2-0.3-0.2-0.5c0-0.3,0.1-0.7,0.3-1.3l0.5-1.8c0.1-0.4,0.2-0.7,0.2-0.8v-0.1H146
		c-0.1,0-0.2,0-0.2,0.1c-0.1,0.1-0.3,0.3-0.5,0.6l-0.2-0.1c0.3-0.4,0.6-0.8,0.9-1c0.2-0.2,0.5-0.2,0.7-0.2c0.1,0,0.3,0,0.4,0.1
		c0.1,0.1,0.1,0.2,0.1,0.4c0,0.2-0.1,0.6-0.2,1.1l-0.5,1.9c-0.2,0.5-0.2,0.8-0.2,1c0,0.1,0,0.1,0.1,0.2c0,0,0.1,0.1,0.2,0.1
		c0.1,0,0.3-0.1,0.5-0.2s0.5-0.4,0.8-0.8c0.3-0.4,0.6-0.8,0.8-1.2s0.5-1,0.7-1.8l0.1-0.4h0.6V89.1z"/>
	<path class="st0" d="M156,89l-1.1,3.9l-0.1,0.5c0,0.1,0,0.1,0,0.1c0,0.1,0,0.1,0.1,0.2l0.1,0.1c0.1,0,0.1,0,0.2-0.1
		c0.2-0.1,0.4-0.3,0.6-0.7l0.2,0.1c-0.3,0.4-0.5,0.7-0.8,0.9s-0.5,0.3-0.8,0.3c-0.2,0-0.3,0-0.4-0.1c-0.1-0.1-0.1-0.2-0.1-0.4
		s0-0.4,0.1-0.7l0.1-0.4c-0.5,0.7-1,1.1-1.4,1.4c-0.3,0.2-0.6,0.3-0.9,0.3c-0.3,0-0.5-0.1-0.7-0.4c-0.2-0.2-0.3-0.6-0.3-1
		c0-0.6,0.2-1.3,0.6-1.9c0.4-0.7,0.8-1.2,1.4-1.6c0.4-0.3,0.9-0.5,1.3-0.5c0.2,0,0.4,0.1,0.6,0.2c0.2,0.1,0.3,0.3,0.4,0.6l0.2-0.7
		L156,89z M154,89.3c-0.2,0-0.5,0.1-0.8,0.3c-0.4,0.3-0.7,0.8-1.1,1.5c-0.3,0.6-0.5,1.2-0.5,1.7c0,0.3,0.1,0.5,0.2,0.6
		c0.1,0.2,0.3,0.2,0.5,0.2c0.4,0,0.9-0.3,1.4-0.9c0.7-0.8,1-1.7,1-2.5c0-0.3-0.1-0.6-0.2-0.7S154.2,89.3,154,89.3z"/>
	<path class="st0" d="M159,89l-0.8,2.6c0.7-1.1,1.3-1.8,1.7-2.1c0.4-0.3,0.8-0.5,1.1-0.5c0.2,0,0.4,0.1,0.5,0.2s0.2,0.3,0.2,0.5
		s-0.1,0.5-0.2,0.9l-0.7,2.4c-0.1,0.3-0.1,0.5-0.1,0.5c0,0.1,0,0.1,0,0.1l0.1,0.1c0,0,0.1,0,0.2-0.1c0.2-0.2,0.4-0.4,0.7-0.7
		l0.2,0.1c-0.4,0.5-0.7,0.9-1,1.1c-0.2,0.2-0.4,0.2-0.6,0.2c-0.1,0-0.3,0-0.3-0.1s-0.1-0.2-0.1-0.4s0.1-0.5,0.2-1l0.7-2.3
		c0.1-0.3,0.1-0.5,0.1-0.7c0-0.1,0-0.1-0.1-0.2c-0.1,0-0.1-0.1-0.2-0.1c-0.1,0-0.2,0-0.4,0.1c-0.3,0.2-0.6,0.5-0.9,0.9
		c-0.3,0.4-0.6,0.9-1,1.5c-0.2,0.3-0.3,0.7-0.5,1.1l-0.3,1h-0.9l1.1-3.6c0.1-0.4,0.2-0.7,0.2-0.8c0-0.1,0-0.2-0.1-0.2
		c-0.1-0.1-0.2-0.1-0.3-0.1c0,0-0.1,0-0.2,0h-0.2v-0.2L159,89z"/>
	<path class="st0" d="M167.9,89.1l-1,3.4c-0.2,0.5-0.2,0.8-0.2,1c0,0.1,0,0.1,0,0.2h0.1c0.1,0,0.1,0,0.2-0.1
		c0.1-0.1,0.3-0.3,0.6-0.7l0.2,0.1c-0.3,0.5-0.6,0.8-0.9,1.1c-0.2,0.1-0.4,0.2-0.6,0.2c-0.2,0-0.3,0-0.4-0.1
		c-0.1-0.1-0.1-0.2-0.1-0.3s0-0.3,0.1-0.5c0.1-0.3,0.2-0.9,0.5-1.9c-0.7,1.1-1.2,1.8-1.6,2.2c-0.4,0.4-0.9,0.6-1.2,0.6
		c-0.2,0-0.3-0.1-0.5-0.2c-0.1-0.1-0.2-0.3-0.2-0.5c0-0.3,0.1-0.7,0.3-1.3l0.5-1.8c0.1-0.4,0.2-0.7,0.2-0.8v-0.1h-0.1
		c-0.1,0-0.2,0-0.2,0.1c-0.1,0.1-0.3,0.3-0.5,0.6l-0.2-0.1c0.3-0.4,0.6-0.8,0.9-1c0.2-0.2,0.5-0.2,0.7-0.2c0.1,0,0.3,0,0.4,0.1
		c0.1,0.1,0.1,0.2,0.1,0.4c0,0.2-0.1,0.6-0.2,1.1l-0.5,1.9c-0.2,0.5-0.2,0.8-0.2,1c0,0.1,0,0.1,0.1,0.2c0,0,0.1,0.1,0.2,0.1
		c0.1,0,0.3-0.1,0.5-0.2s0.5-0.4,0.8-0.8c0.3-0.4,0.6-0.8,0.8-1.2s0.5-1,0.7-1.8l0.1-0.4h0.6V89.1z"/>
	<path class="st0" d="M171,89l-1.1,4.1c-0.1,0.3-0.1,0.4-0.1,0.5s0,0.1,0.1,0.2l0.1,0.1c0.1,0,0.1,0,0.2-0.1
		c0.2-0.2,0.4-0.4,0.7-0.7l0.2,0.1c-0.3,0.4-0.6,0.7-0.9,1c-0.3,0.2-0.5,0.3-0.8,0.3c-0.2,0-0.3,0-0.4-0.1c-0.1-0.1-0.2-0.2-0.2-0.4
		c0-0.1,0-0.4,0.1-0.7l0.8-2.6c0.1-0.4,0.2-0.7,0.2-0.8c0-0.1,0-0.2-0.1-0.2c-0.1-0.1-0.1-0.1-0.2-0.1c-0.1,0-0.3,0-0.5,0.1v-0.2
		L171,89z M170.9,86.7c0.2,0,0.3,0.1,0.4,0.2s0.2,0.2,0.2,0.4c0,0.2-0.1,0.3-0.2,0.4c-0.1,0.1-0.2,0.2-0.4,0.2s-0.3-0.1-0.4-0.2
		c-0.1-0.1-0.2-0.2-0.2-0.4c0-0.2,0.1-0.3,0.2-0.4C170.6,86.7,170.7,86.7,170.9,86.7z"/>
</g>
<g>
	<path d="M113.1,75l-0.5,2.1l-0.1,0.4c-0.1,0.4-0.2,0.5-0.7,0.7c-1.7,0.8-3.6,1.1-5.7,1.1c-6.1,0-9.9-3.6-9.9-9.2
		c0-6,4.4-10.2,10.7-10.2c1.7,0,3.9,0.4,5,0.9c0.3,0.1,0.3,0.2,0.4,0.6v0.3l0.2,2l0.1,0.6c0,0.1-0.1,0.2-0.3,0.2
		c0,0-0.2,0.1-0.4,0.1c-0.1,0-0.2-0.1-0.2-0.2c-0.7-1.9-2.4-3-4.9-3c-4.4,0-7.5,3.3-7.5,8c0,4.9,3.1,8.3,7.3,8.3
		c2.7,0,4.8-1.2,5.8-3.3c0.1-0.2,0.2-0.3,0.3-0.3s0.1,0,0.4,0.1c0.2,0.1,0.2,0.1,0.2,0.2S113.1,74.7,113.1,75z"/>
	<path d="M126.6,79.3c-5.4,0-9.2-3.8-9.2-9.2c0-5.9,4.3-10.3,10.1-10.3c5.3,0,9.1,3.8,9.1,8.9C136.5,74.9,132.4,79.3,126.6,79.3z
		 M126.7,61.2c-3.9,0-6.5,3.1-6.5,7.8c0,5,2.9,8.8,6.8,8.8c3.8,0,6.5-3.2,6.5-7.8C133.5,65,130.6,61.2,126.7,61.2z"/>
	<path d="M155,74.4l-0.7,3.7l-0.1,0.3c-0.1,0.3-0.2,0.4-0.5,0.4l-4.6-0.1h-4.7c-2.5,0-2,0.1-3.3,0.1c-0.2,0-0.3-0.1-0.3-0.3v-0.3
		c0-0.2,0.1-0.2,0.3-0.3c2.1-0.2,2.2-0.3,2.2-2.2v-12c0-1.7,0-2.2-0.9-2.4c-0.6-0.1-0.8-0.1-1.2-0.2s-0.4-0.1-0.4-0.4
		s0.1-0.4,0.3-0.4c-0.2,0,2.8,0.1,3.7,0.1c2.5,0,3.7-0.1,4-0.1s0.3,0.1,0.3,0.3v0.2c0,0.3-0.1,0.3-0.4,0.4c-1,0-1.7,0.2-2,0.4
		c-0.4,0.2-0.4,0.6-0.4,2.2v10.9c0,1.7,0.1,1.9,0.2,2.1c0.2,0.4,0.7,0.5,2,0.5c1.7,0,2.5-0.1,3.4-0.5s1.8-1.4,2.2-2.8
		c0.1-0.2,0.1-0.3,0.3-0.3c0.1,0,0.3,0,0.3,0c0.3,0.1,0.4,0.1,0.4,0.3C155,74.1,155,74.4,155,74.4z"/>
	<path d="M173.7,74.4l-0.7,3.7l-0.1,0.3c-0.1,0.3-0.2,0.4-0.5,0.4l-4.6-0.1h-4.7c-2.5,0-2,0.1-3.3,0.1c-0.2,0-0.3-0.1-0.3-0.3v-0.3
		c0-0.2,0.1-0.2,0.3-0.3c2.1-0.2,2.2-0.3,2.2-2.2v-12c0-1.7,0-2.2-0.9-2.4c-0.6-0.1-0.8-0.1-1.2-0.2s-0.4-0.1-0.4-0.4
		s0.1-0.4,0.3-0.4c-0.2,0,2.8,0.1,3.7,0.1c2.5,0,3.7-0.1,4-0.1s0.3,0.1,0.3,0.3v0.2c0,0.3-0.1,0.3-0.4,0.4c-1,0-1.7,0.2-2,0.4
		c-0.4,0.2-0.4,0.6-0.4,2.2v10.9c0,1.7,0.1,1.9,0.2,2.1c0.2,0.4,0.7,0.5,2,0.5c1.7,0,2.5-0.1,3.4-0.5s1.8-1.4,2.2-2.8
		c0.1-0.2,0.1-0.3,0.3-0.3c0.1,0,0.3,0,0.3,0c0.3,0.1,0.4,0.1,0.4,0.3C173.7,74.1,173.7,74.4,173.7,74.4z"/>
	<path d="M191.8,77.7c-0.1,0.7,0,1.1-0.6,1.1h-0.5c-0.3,0-0.6,0-6.7-0.1c-0.7,0-1.8,0-3.2,0c-0.7,0-1.2,0-1.6,0h-0.9
		c-0.2,0-0.3-0.1-0.3-0.3v-0.3c0-0.2,0.1-0.3,0.3-0.3c1-0.1,1.4-0.2,1.8-0.4c0.5-0.3,0.4-1,0.4-1.7v-12c0-1.5-0.1-1.9-0.5-2.2
		c-0.3-0.2-0.8-0.3-1.7-0.3c-0.2,0-0.3-0.1-0.3-0.3v-0.2c0-0.2,0.1-0.3,0.3-0.3h0.5c0.3,0,1,0,1.9,0h4.4c0.9,0,1.8,0,2.8,0
		c2.3,0,2.1,0,2.5,0c0.6,0,0.7,0.1,0.7,0.7c0.1,1.2,0.3,2.7,0.3,3.2c0,0.2-0.2,0.3-0.7,0.3c-0.1,0-0.1,0-0.3-0.5
		c-0.3-0.9-0.9-1.7-1.4-2c-0.6-0.3-1.8-0.4-3.6-0.4c-1.7,0-2.1,0-2.1,0v6.8h2.2h1.4c1.4,0,1.8-0.4,1.9-1.9c0-0.4,0.1-0.5,0.4-0.5
		c0.4,0,0.5,0.1,0.5,0.4v0.7c0,0.6,0,1.2,0,1.8c0,2.6,0.1,2.6,0.1,2.9s-0.1,0.4-0.6,0.4c-0.2,0-0.2-0.1-0.3-0.3
		c-0.1-1-0.2-1.5-0.4-1.7c-0.2-0.4-0.7-0.4-3.2-0.5h-1.4h-0.6v5.9c0,1.4,0.4,1.6,2.5,1.6c1.7,0,2.6-0.1,3.6-0.6
		c1-0.4,1.4-0.9,2.1-2.4c0.1-0.2,0.2-0.3,0.3-0.3c0.4,0,0.6,0.1,0.6,0.3C192.4,74.8,192.2,74.8,191.8,77.7z"/>
	<path d="M215,71.8c-0.7,0.1-1.4,0.2-1.6,0.4c-0.2,0.1-0.4,0.5-0.4,0.9c0,0.2,0,0.9,0,1.3v2.5c0,0.8-0.2,0.9-0.6,1.1
		c-1.6,0.8-3.9,1.3-6.1,1.3c-5.9,0-9.8-3.7-9.8-9.3c0-6,4.4-10.2,10.6-10.2c1.6,0,3.2,0.2,4.5,0.7c0.9,0.3,0.9,0.5,1,1.3
		c0.1,0.9,0.2,2.3,0.2,2.5s-0.2,0.3-0.7,0.3c-0.1,0-0.2-0.1-0.2-0.2c-0.7-2-2.3-3-5.1-3c-4.4,0-7.4,3.2-7.4,7.9c0,4.9,3,8.4,7.2,8.4
		c1.4,0,2.4-0.2,3.6-0.7v-2.6c0-1.3,0-2-0.7-2.3c-0.4-0.2-1-0.2-1.9-0.2c-0.4,0-0.6,0-0.6-0.4s0-0.5,0.4-0.5c0.2,0,2.1,0.1,3.5,0.1
		c0,0,3-0.1,4.1-0.1c0.3,0,0.3,0.1,0.3,0.4v0.2C215.4,71.7,215.3,71.8,215,71.8z"/>
	<path d="M232.4,77.7c-0.1,0.7,0,1.1-0.6,1.1h-0.5c-0.3,0-0.6,0-6.7-0.1c-0.7,0-1.8,0-3.2,0c-0.7,0-1.2,0-1.6,0h-0.9
		c-0.2,0-0.3-0.1-0.3-0.3v-0.3c0-0.2,0.1-0.3,0.3-0.3c1-0.1,1.4-0.2,1.8-0.4c0.5-0.3,0.4-1,0.4-1.7v-12c0-1.5-0.1-1.9-0.5-2.2
		c-0.3-0.2-0.8-0.3-1.7-0.3c-0.2,0-0.3-0.1-0.3-0.3v-0.2c0-0.2,0.1-0.3,0.3-0.3h0.5c0.3,0,1,0,1.9,0h4.4c0.9,0,1.8,0,2.8,0
		c2.3,0,2.1,0,2.5,0c0.6,0,0.7,0.1,0.7,0.7c0.1,1.2,0.3,2.7,0.3,3.2c0,0.2-0.2,0.3-0.7,0.3c-0.1,0-0.1,0-0.3-0.5
		c-0.3-0.9-0.9-1.7-1.4-2c-0.6-0.3-1.8-0.4-3.6-0.4c-1.7,0-2.1,0-2.1,0v6.8h2.2h1.4c1.4,0,1.8-0.4,1.9-1.9c0-0.4,0.1-0.5,0.4-0.5
		c0.4,0,0.5,0.1,0.5,0.4v0.7c0,0.6,0,1.2,0,1.8c0,2.6,0.1,2.6,0.1,2.9s-0.1,0.4-0.6,0.4c-0.2,0-0.2-0.1-0.3-0.3
		c-0.1-1-0.2-1.5-0.4-1.7c-0.2-0.4-0.7-0.4-3.2-0.5h-1.4h-0.6v5.9c0,1.4,0.4,1.6,2.5,1.6c1.7,0,2.6-0.1,3.6-0.6
		c1-0.4,1.4-0.9,2.1-2.4c0.1-0.2,0.2-0.3,0.3-0.3c0.4,0,0.6,0.1,0.6,0.3C233,74.8,232.9,74.8,232.4,77.7z"/>
</g>
<g id="UoW_Tauranga_stacked_1_">
	<g>
		<g>
			<path class="st1" d="M81.9,96.3c-0.1,0.4,0.5,1,0.9,0.9c0.6-0.1,1.1-0.5,1.5-1.4c0.5-0.9,0.9-2.1,1.6-3.4c0.6-1.2,1-1.9,1.6-2.9
				c-0.7,0.2-1.3,0.2-2,0.1c-0.8-0.2-1.5-0.5-2-1.2L81.9,96.3z M15.3,96.3l-1.6-8c-0.5,0.6-1.2,1-2,1.2c-0.7,0.1-1.3,0.2-2-0.1
				c0.5,1,0.9,1.7,1.6,2.9c0.7,1.3,1.1,2.5,1.6,3.4s0.9,1.4,1.5,1.4C14.8,97.2,15.4,96.7,15.3,96.3 M79.3,69.1
				c2.8,6.7-11.9,23.3-30.7,23.3c-18.7,0-33.5-16.8-30.7-23.3c-1.9,1.2-4.5,2.9-5.2,3.6C8.6,76.3,15.8,87,26.2,93.6
				c7.5,4.8,14.9,6.4,22.5,6.3c7.5,0.1,14.9-1.5,22.5-6.3C81.6,87,88.8,76.3,84.7,72.7C83.8,72,81.2,70.3,79.3,69.1 M22.8,79.9
				c1.2,1.4,2.7,2.8,4.3,4.2c0.3,0.3,0.7,0.5,1.1,0.8c0.1-0.2,0.3-0.4,0.6-0.8c0.4-0.6,1-1.5,1.5-2.4c0.7-1.4,1.1-2.5,1.4-4.2
				c-1.3-1.2-3-3-3-3s-1.3-1.5-2.6-3c0.3,1.4,0.1,2.7-0.5,4.3C25.2,77,24,78.8,22.8,79.9 M19.7,89.4c-0.8-0.8-1.6-1.5-2.4-2.3
				c-1-1-1.8-2-2.6-3c-0.6,0.1-1.4,0.1-2.3,0.3c-0.9,0.2-1.8,0.4-2.5,1c-1.1,0.9-1.3,1.9-0.9,2.7c0.4,0.9,1.5,1,2.6,0.8
				c1-0.2,1.6-0.6,2-1.6l0.4-0.9l1,4.9c1-0.1,1.7-0.2,2.9-0.5c1.1-0.3,1.8-0.5,2.5-0.8L19.7,89.4z M82.5,84.1c-1.6,2-3.5,4.1-5.7,6
				c0.7,0.3,1.4,0.5,2.5,0.8s1.9,0.4,2.9,0.5l1-4.9l0.4,0.9c0.4,0.9,1,1.4,2,1.6s2.2,0.1,2.6-0.8s0.2-1.8-0.9-2.7
				c-0.7-0.6-1.6-0.8-2.5-1C83.9,84.2,83.2,84.2,82.5,84.1 M71.5,75.8c-0.5-1.6-0.7-2.9-0.5-4.3c-1.3,1.6-2.7,3-2.7,3
				s-1.7,1.7-2.9,2.9c0.3,1.7,0.7,2.9,1.4,4.3c0.5,1,1.1,1.8,1.5,2.4c0.2,0.3,0.5,0.7,0.6,0.8c2.3-1.7,4.1-3.5,5.3-4.8
				C73.3,78.9,71.9,77.1,71.5,75.8"/>
			<polygon points="24.9,91.1 24.8,88.3 27.3,87.7 26.5,87.1 24.3,87.6 24.3,87.6 25.4,86.2 24.7,85.7 22.2,89.1 22.9,89.6 
				23.9,88.1 24,88.1 24,90.5 			"/>
			<path d="M30.2,92c0.3-0.5,0.4-1,0.3-1.6c-0.1-0.5-0.5-1-1.1-1.4c-0.6-0.3-1.1-0.4-1.7-0.3c-0.5,0.1-1,0.5-1.3,1
				c-0.3,0.6-0.4,1.2-0.3,1.7c0.1,0.5,0.5,0.9,1,1.2c0.6,0.3,1.1,0.4,1.7,0.3C29.4,92.9,29.9,92.5,30.2,92 M29.4,91.5
				c-0.5,0.8-1.2,1-1.8,0.6s-0.8-1.1-0.3-1.9s1.2-1,1.8-0.6S29.9,90.7,29.4,91.5"/>
			<polygon points="37.2,92.6 34,91.4 33.7,92.1 34.9,92.5 33.7,95.8 34.5,96.1 35.7,92.8 36.8,93.2 			"/>
			<polygon points="39.7,97.6 39.8,96.9 38.3,96.5 38.6,95.5 39.9,95.8 40.1,95.1 38.8,94.8 39.1,93.8 40.3,94.2 40.8,93.5 
				38.4,92.9 37.3,97 			"/>
			<polygon points="47.1,94.4 43.7,94 43.6,94.8 44.9,94.9 44.5,98.4 45.4,98.5 45.7,95 46.9,95.1 			"/>
			<path d="M51.8,98.5L50,94.3h-0.7l-1.6,4.3h0.9l0.4-1h1.4l0.4,1L51.8,98.5z M50.2,96.8h-0.9l0.3-0.8c0.1-0.2,0.1-0.4,0.1-0.5l0,0
				c0,0.1,0.1,0.3,0.2,0.5L50.2,96.8z"/>
			<path d="M57.3,97.8l-0.7-4.2l-0.9,0.1l0.3,2.1c0,0.2,0.1,0.4,0.1,0.6l0,0c-0.1-0.2-0.3-0.3-0.5-0.5L53.5,94l-0.9,0.1l0.7,4.2
				l0.9-0.1l-0.4-2.3c0-0.2-0.1-0.4-0.1-0.6l0,0c0.2,0.2,0.3,0.3,0.5,0.5l2.2,2L57.3,97.8z"/>
			<path d="M62.7,95.9l-0.5-1.7l-0.8,0.3l0.4,1.3c-0.1,0.1-0.3,0.2-0.6,0.3c-0.8,0.3-1.5-0.2-1.8-1c-0.2-0.7,0-1.5,1.1-1.8
				c0.4-0.1,0.8-0.1,1.2-0.1l-0.2-0.8c-0.4,0-0.7,0-1.3,0.2c-1.4,0.4-2,1.6-1.6,2.8c0.3,1.1,1.4,1.8,2.7,1.4
				C61.8,96.6,62.3,96.2,62.7,95.9"/>
			<path d="M67.9,94l-3.3-3.1L64,91.2l0.3,4.5l0.8-0.4L65,94.2l1.3-0.6l0.8,0.8L67.9,94z M65.7,93.1l-0.8,0.4l-0.1-0.9
				c0-0.2,0-0.4-0.1-0.5l0,0c0.1,0.1,0.2,0.2,0.4,0.4L65.7,93.1z"/>
			<polygon points="69.3,88.2 66.3,90 66.7,90.7 67.8,90 69.6,93 70.4,92.5 68.5,89.5 69.5,88.9 			"/>
			<path d="M75.2,88.9l-4-2.3L70.7,87l1.3,4.3l0.7-0.5l-0.3-1l1.1-0.9l1,0.6L75.2,88.9z M72.9,88.5l-0.7,0.6l-0.3-0.8
				c-0.1-0.2-0.1-0.4-0.2-0.5l0,0c0.1,0.1,0.3,0.2,0.4,0.3L72.9,88.5z"/>
			<path d="M81.9,96.3c-0.1,0.4,0.5,1,0.9,0.9c0.6-0.1,1.1-0.5,1.5-1.4c0.5-0.9,0.9-2.1,1.6-3.4c0.6-1.2,1-1.9,1.6-2.9
				c-0.7,0.2-1.3,0.2-2,0.1c-0.8-0.2-1.5-0.5-2-1.2L81.9,96.3z M15.3,96.3l-1.6-8c-0.5,0.6-1.2,1-2,1.2c-0.7,0.1-1.3,0.2-2-0.1
				c0.5,1,0.9,1.7,1.6,2.9c0.7,1.3,1.1,2.5,1.6,3.4s0.9,1.4,1.5,1.4C14.8,97.2,15.4,96.7,15.3,96.3 M22.8,79.9
				c1.2,1.4,2.7,2.8,4.3,4.2c0.3,0.3,0.7,0.5,1.1,0.8c0.1-0.2,0.3-0.4,0.6-0.8c0.4-0.6,1-1.5,1.5-2.4c0.7-1.4,1.1-2.5,1.4-4.2
				c-1.3-1.2-3-3-3-3s-1.3-1.5-2.6-3c0.3,1.4,0.1,2.7-0.5,4.3C25.2,77,24,78.8,22.8,79.9 M19.7,89.4c-0.8-0.8-1.6-1.5-2.4-2.3
				c-1-1-1.8-2-2.6-3c-0.6,0.1-1.4,0.1-2.3,0.3c-0.9,0.2-1.8,0.4-2.5,1c-1.1,0.9-1.3,1.9-0.9,2.7c0.4,0.9,1.5,1,2.6,0.8
				c1-0.2,1.6-0.6,2-1.6l0.4-0.9l1,4.9c1-0.1,1.7-0.2,2.9-0.5c1.1-0.3,1.8-0.5,2.5-0.8L19.7,89.4z M82.5,84.1c-1.6,2-3.5,4.1-5.7,6
				c0.7,0.3,1.4,0.5,2.5,0.8s1.9,0.4,2.9,0.5l1-4.9l0.4,0.9c0.4,0.9,1,1.4,2,1.6s2.2,0.1,2.6-0.8s0.2-1.8-0.9-2.7
				c-0.7-0.6-1.6-0.8-2.5-1C83.9,84.2,83.2,84.2,82.5,84.1 M71.5,75.8c-0.5-1.6-0.7-2.9-0.5-4.3c-1.3,1.6-2.7,3-2.7,3
				s-1.7,1.7-2.9,2.9c0.3,1.7,0.7,2.9,1.4,4.3c0.5,1,1.1,1.8,1.5,2.4c0.2,0.3,0.5,0.7,0.6,0.8c2.3-1.7,4.1-3.5,5.3-4.8
				C73.3,78.9,71.9,77.1,71.5,75.8 M24.8,76.1c-0.5-0.7-1.6-1-2.5-1s-1.7,0.3-2.2,1c0.6,1.1,1.4,2.2,2.3,3.3
				C23.3,78.6,24.3,77.2,24.8,76.1 M77.2,76.1c-0.5-0.6-1.3-0.9-2.2-1c-1,0-2,0.3-2.5,0.9c0.4,1.2,1.4,2.6,2.3,3.4
				C75.8,78.4,76.5,77.2,77.2,76.1 M79.4,69.1c0.1,0.2,0.1,0.4,0.2,0.7c1.6,7.1-12.8,22.6-31,22.6c-18.7,0-33.5-16.8-30.7-23.3
				c-1.9,1.2-4.5,2.9-5.2,3.6C8.6,76.3,15.8,87,26.2,93.6c7.5,4.8,14.9,6.4,22.5,6.3c7.5,0.1,14.9-1.5,22.5-6.3
				C81.6,87,88.8,76.3,84.7,72.7C83.8,72,81.3,70.3,79.4,69.1 M72.1,69.3c0.8-1.4,1.8-2.4,3.6-2.5c1,0,1.7,0.1,2.5,0.7
				c0.1,0.1,5.9,3.8,6.8,4.6c2.7,2.3,1.4,6.7-2,11.3c0.6,0.1,1.2,0.1,1.9,0.2c0.9,0.2,2,0.5,2.8,1.1c1.3,1.1,1.6,2.2,1,3.7
				c-0.8,1.6-1.4,2.4-2.2,4.1c-0.7,1.3-1.1,2.5-1.6,3.4s-1.1,1.7-2,1.8c-0.8,0.1-1.8-0.7-1.6-1.7l0.8-4.2c-1-0.1-1.8-0.2-2.9-0.5
				c-1.2-0.3-2.1-0.6-2.9-1c-1.5,1.3-3.2,2.5-4.9,3.6c-7.6,4.9-15.2,6.5-22.8,6.4c-7.6,0.1-15.2-1.5-22.8-6.4
				c-1.7-1.1-3.3-2.3-4.9-3.6c-0.8,0.4-1.7,0.6-2.9,1c-1.1,0.3-1.9,0.4-2.9,0.5l0.8,4.2c0.2,0.9-0.8,1.8-1.6,1.7
				c-1-0.1-1.5-0.8-2-1.8c-0.5-0.9-0.9-2.1-1.6-3.4c-0.8-1.6-1.4-2.5-2.2-4.1c-0.6-1.5-0.3-2.6,1-3.7c0.8-0.7,1.8-1,2.8-1.1
				c0.7-0.1,1.4-0.2,1.9-0.2c-3.4-4.6-4.7-9-2-11.3c1.1-0.9,5.5-3.8,7-4.7c0.8-0.5,1.4-0.7,2.4-0.6c1.7,0.1,2.8,1.1,3.6,2.4
				c1.4,2,4,4.8,4,4.8s1.9,1.9,3.1,3.1l0.1,0.3c-0.3,1.8-0.7,3-1.5,4.5c-0.5,1-1.1,1.9-1.6,2.5c-0.2,0.3-0.4,0.6-0.5,0.8
				c5.1,3.7,11.9,6.5,19.8,6.5s14.7-2.8,19.9-6.4c-0.2-0.2-0.4-0.5-0.6-0.8c-0.5-0.6-1.1-1.5-1.6-2.5c-0.8-1.5-1.2-2.7-1.5-4.5
				l0.1-0.3c1.3-1.1,3.1-3.1,3.1-3.1S70.6,71.2,72.1,69.3L72.1,69.3z"/>
			<path class="st1" d="M81.7,8.4v35.1c0,0,0.1,3.1-1.1,8.1c-1.3,4.9-3.9,11.7-9.6,18.9c-4.3,5.6-10,10.1-14.6,13.2
				c-4,2.8-7.2,4.4-7.9,4.8c-0.7-0.3-4.1-2-8.3-4.9c-4.8-3.3-10.7-8.1-15.1-14.3c-4.6-6.4-7-13.1-8.2-18.2c-1.2-5.1-1.4-8.6-1.4-8.6
				v-34L81.7,8.4L81.7,8.4z"/>
			<path d="M23.3,16.2H74v27c0,0,0,9.5-7.6,20.7c-6.5,9.6-17.8,15.7-17.8,15.7s-12.5-7.5-18.7-17.3c-6.9-11-6.6-20.7-6.6-20.7
				S23.3,16.2,23.3,16.2z"/>
			<path d="M81.7,8.4H15.6v34c0,0,0.1,3.5,1.4,8.6c1.2,5.1,3.6,11.8,8.2,18.2c4.4,6.2,10.3,11.1,15.1,14.3c4.2,2.9,7.6,4.6,8.3,4.9
				c0.7-0.3,3.9-2,7.9-4.8c4.6-3.1,10.2-7.6,14.6-13.2c5.6-7.2,8.3-14,9.6-18.9c1.3-4.9,1.1-8.1,1.1-8.1v-35H81.7z M82.4,7.8v35.7
				c0,0,0.6,12.8-10.8,27.4c-8.8,11.3-22.9,18.3-22.9,18.3s-3.8-1.8-8.7-5.1c-4.8-3.3-10.8-8.2-15.3-14.5C15.5,56.7,15,42.5,15,42.5
				V7.8H82.4z"/>
			<path class="st0" d="M39.1,76.4c-1.9-1-2.1,0.7-1.2,1.7c-4.6-2.6-7.8-7.4-7.8-7.4c2.1,0.7,3.3,1,5.3,2.3c-1-0.5-2.4,0.1-1.1,1.4
				c1.9,2,6.2,1,1.9-2.4c-2.8-2.2-5.5-2-9.6-4.2c0,0,3.7,6.6,10.5,11.4C42.2,82.9,41.8,77.7,39.1,76.4"/>
			<path class="st0" d="M50.9,80.4c-1.7,1.8,0.2,2.5,1.7,2c0,0-1,0.7-2.1,1.3c-0.6,0.4-1.3,0.8-1.9,1c-0.6-0.2-1.3-0.6-1.9-1
				c-1-0.6-2.1-1.3-2.1-1.3c1.5,0.5,3.4-0.2,1.7-2c-2-2.1-7.7-0.6-2.5,3.4c1.3,1,2.9,1.9,4.8,2.8c1.9-0.8,3.5-1.8,4.8-2.8
				C58.7,79.8,52.9,78.3,50.9,80.4"/>
			<path class="st0" d="M63.1,74.4C64.4,73,63,72.5,62,73c1.9-1.3,3.2-1.6,5.3-2.3c0,0-3.2,4.8-7.8,7.4c0.9-0.9,0.7-2.7-1.2-1.7
				c-2.7,1.4-3.1,6.5,2,2.9c6.8-4.8,10.5-11.4,10.5-11.4c-4,2.2-6.8,2-9.6,4.2C56.9,75.4,61.3,76.4,63.1,74.4"/>
			<path class="st0" d="M27.3,67c1.5,0.7,3.2,1.2,4.8,1.6c-0.3-0.5-0.6-1.1-1-1.6l0,0c-1-1.7-2.1-3.6-3.7-5.8
				c-1-1.5-2.2-3.2-3.6-4.8c-4.1-4.8-4.7,1.5-2,2.9c1.9,1,2-0.7,1.2-1.7c3.3,3.5,5.9,8.6,5.9,8.6c-1.7-0.7-2.9-1.3-4.5-3.1
				c1,0.6,2.4,0,1.1-1.4c-1.8-2-5.1-2.1-1.9,2.4C24.5,65.4,25.8,66.3,27.3,67L27.3,67z"/>
			<path class="st0" d="M73.6,56.4C72.2,58,71,59.7,70,61.2c-1.5,2.2-2.7,4.1-3.7,5.8l0,0c-0.3,0.6-0.7,1.1-1,1.6
				c1.6-0.5,3.3-0.9,4.8-1.6l0,0c1.5-0.7,2.8-1.6,3.7-2.9c3.2-4.5-0.1-4.4-1.9-2.4c-1.3,1.4,0.1,2.1,1.1,1.4
				c-1.7,1.8-2.8,2.4-4.6,3.1c0,0,2.6-5,5.9-8.6c-0.8,1-0.7,2.7,1.2,1.7C78.3,57.9,77.6,51.6,73.6,56.4"/>
			<path class="st0" d="M19.7,50.7c-0.4-1.1-0.6-2.2-0.8-3.3l0,0c-0.7-3.9-0.6-7.2-0.6-7.2c1.2,1.8,1.8,2.7,2.5,4.9
				c-0.5-1-1.9-1.4-1.6,0.5c0.1,0.7,0.4,1.3,0.8,1.8l0,0c0.8,0.9,1.9,1.2,2.2,0l0,0c0.1-0.5,0.1-1.4-0.2-2.6
				c-0.9-3.4-2.9-4.8-4.8-8.9c0,0-0.5,5.6,0.4,11.5c0.2,1.2,0.4,2.3,0.7,3.5c1.6,6.1,5,1.6,3.6-1.1C21,47.8,19.6,49.4,19.7,50.7"/>
			<path class="st0" d="M24.2,10.1c-1.6,0.2-3.6,0.7-5.5,1.5c-0.8,1.9-1.3,3.9-1.5,5.5c-0.9,6.5,4,3.5,4.2,0.6
				c0.1-2.5-2.1-1.7-2.6-0.5c0.1-0.8,0.2-1.1,0.5-2.2c0.2-0.8,0.5-1.5,0.8-2.1c0.6-0.3,1.4-0.6,2.1-0.8c1.1-0.3,1.4-0.3,2.2-0.5
				c-1.2,0.5-2,2.7,0.5,2.6C27.7,14.1,30.7,9.2,24.2,10.1"/>
			<path class="st0" d="M21.9,29.8c-0.1-1.8-0.2-2.8-0.7-4.5c-1.7-6-4.6-1.8-3.4,1c0.8,2,2.2,0.7,2-0.6c0.5,1.6,0.6,2.4,0.8,4.1v6.8
				c-1.1-1.9-1.6-3.2-2.3-5.4c0.4,1.1,1.8,1.5,1.7-0.4c-0.2-2.7-4-4.7-2.9,0.7c0.7,3.5,2.7,6.8,4.8,9.6L21.9,29.8z"/>
			<path class="st0" d="M39.1,9.8c-2,0-4.4,0.2-6.3,0.7c-6.9,1.7-2.2,4.7,1,3.4c2.2-0.9,0.9-2.2-0.6-2c1.8-0.5,4-0.8,5.9-0.8h7.4
				c-2.2,1.1-3.6,1.6-6.2,2.3c1.2-0.4,1.7-1.9-0.5-1.7c-3.1,0.2-5.4,4.1,0.7,3c4-0.7,7.7-2.7,10.9-4.8L39.1,9.8z"/>
			<path class="st0" d="M77.4,30.7c-0.1,1.9,1.4,1.5,1.7,0.4c-0.6,2.3-1.1,3.5-2.3,5.4v-6.8c0.1-1.7,0.2-2.5,0.8-4.1
				c-0.2,1.3,1.2,2.6,2,0.6c1.2-2.8-1.7-7-3.4-1c-0.5,1.7-0.6,2.7-0.7,4.5V41c2.1-2.9,4.1-6.1,4.8-9.6C81.5,26,77.6,28,77.4,30.7"/>
			<path class="st0" d="M80.2,35.9c-1.9,4.2-3.9,5.5-4.8,8.9c-0.3,1.2-0.4,2.1-0.2,2.6c0.3,1.2,1.4,0.9,2.3,0
				c0.4-0.5,0.7-1.1,0.8-1.8c0.2-1.9-1.2-1.5-1.6-0.5c0.7-2.1,1.3-3,2.5-4.9c0,0,0.1,3.3-0.6,7.2l0,0l0,0c-0.2,1.1-0.5,2.2-0.8,3.3
				c0.1-1.3-1.3-2.9-2.2-1c-1.4,2.7,2,7.2,3.6,1.1c0.3-1.1,0.5-2.3,0.7-3.5C80.7,41.5,80.2,35.9,80.2,35.9"/>
			<path class="st0" d="M73.1,11.7c0.8,0.1,1.1,0.2,2.2,0.5c0.8,0.2,1.5,0.5,2.1,0.8c0.3,0.6,0.6,1.4,0.8,2.1
				c0.3,1.1,0.3,1.4,0.5,2.2c-0.5-1.2-2.7-2-2.6,0.5c0.2,2.9,5.1,5.9,4.2-0.6c-0.2-1.6-0.7-3.6-1.5-5.5c-1.9-0.8-3.9-1.3-5.5-1.5
				c-6.5-0.9-3.5,4-0.6,4.2C75.1,14.4,74.3,12.2,73.1,11.7"/>
			<path class="st0" d="M63.4,10.6c-2.2,0.9-0.9,2.2,0.6,2c-1.8,0.5-4,0.8-5.9,0.8h-7.4c2.2-1.1,3.6-1.6,6.2-2.3
				c-1.2,0.4-1.7,1.9,0.5,1.7c3.1-0.2,5.4-4.1-0.7-3c-4,0.7-7.7,2.7-10.9,4.8h12.5c2,0,4.4-0.2,6.3-0.7
				C71.3,12.3,66.6,9.3,63.4,10.6"/>
			<path class="st1" d="M74.8,71c0.1,0.4,0.4,0.7,0.8,0.7c0.5,0,0.8-0.4,0.8-0.8c0-0.2-0.1-0.4-0.2-0.5s-0.3-0.2-0.5-0.3
				c-0.6-0.2-1.3,0.1-1.8,0.8c-0.6,1,0,2.3,1.1,2.8c1.2,0.5,3.5-0.1,3.8-2.6c0.2-1.6-0.4-2.6-1.5-3.2c-1.4-0.8-4.2-0.4-4.8,2.2
				l0.1,0.1c1.3-1.7,2.9-1.7,3.8-1.2c1.3,0.7,1.3,2.4,0.7,3.1c-0.6,0.8-1.5,0.9-2.1,0.5C74.8,72.2,74.6,71.6,74.8,71 M22.4,71
				c-0.1,0.4-0.4,0.7-0.8,0.7c-0.5,0-0.8-0.4-0.8-0.8c0-0.2,0.1-0.4,0.2-0.5c0.1-0.1,0.3-0.2,0.5-0.3c0.6-0.2,1.3,0.1,1.8,0.8
				c0.6,1,0,2.3-1.1,2.8c-1.2,0.5-3.5-0.1-3.8-2.6c-0.2-1.6,0.4-2.6,1.5-3.2c1.4-0.8,4.2-0.4,4.8,2.2l-0.1,0.1
				c-1.3-1.7-2.9-1.7-3.8-1.2c-1.3,0.7-1.3,2.4-0.7,3.1c0.6,0.8,1.5,0.9,2.1,0.5C22.4,72.2,22.7,71.6,22.4,71"/>
			<path class="st1" d="M52.5,73.1l-3.8-2.8l-3.8,2.8l1.5-4.5l-3.8-2.8h4.7l1.5-4.5l1.5,4.5H55l-3.8,2.8L52.5,73.1z M51.7,27.1
				l-3.1-2.2l-3.1,2.2l1.2-3.6l-3.1-2.2h3.8l1.2-3.6l1.2,3.6h3.8l-3.1,2.2L51.7,27.1z M71.2,46.8l-3.1-2.2L65,46.8l1.2-3.6l-3-2.2
				H67l1.2-3.6l1.2,3.6h3.8L70,43.2L71.2,46.8z M32.1,46.8L29,44.6l-3,2.2l1.2-3.6L24.1,41h3.8l1.2-3.6l1.2,3.6H34l-3.1,2.2
				L32.1,46.8z"/>
			<path class="st0" d="M35.4,34.3h1v21.8h10.8c0.2,0,0.3,0,0.4-0.1c0.2-0.1,0.5-0.3,0.8-0.6c0.1-0.1,0.2-0.3,0.3-0.4
				c0.1,0.1,0.2,0.3,0.3,0.4c0.3,0.3,0.6,0.5,0.8,0.6c0.1,0,0.2,0.1,0.4,0.1H61V34.3h1v22.5H50.9c0.1,0.9-0.8,0.8-2.2,0.8
				c-1.4,0-2.3,0.1-2.2-0.8H35.4V34.3z"/>
			<path d="M59.4,32.2c-0.2-0.1-0.3-0.2-0.5-0.4v20.7l1.4,2.1V32.8c-0.2-0.1-0.5-0.3-0.8-0.5L59.4,32.2z M49,51.3
				c0,0,0.5-0.5,1.7-0.6c1.7-0.1,2.3,0.6,3.2,1c1.9,0.9,4.4,0.7,4.4,0.7V31.2c0,0-2.4,0.2-4.4-0.6c-0.8-0.4-1.4-1.2-3.2-1
				c-1.2,0.1-1.7,0.9-1.7,0.9V51.3z M48.3,51.3V30.5c0,0-0.4-0.9-1.7-0.9c-1.8-0.1-2.4,0.7-3.2,1c-2,0.9-4.4,0.6-4.4,0.6v21.1
				c0,0,2.5,0.2,4.4-0.7c0.8-0.4,1.4-1.1,3.2-1C47.8,50.8,48.3,51.3,48.3,51.3 M37.2,55.5h10c0.3-0.1,0.5-0.2,0.7-0.5
				c0.3-0.3,0.4-0.5,0.4-0.7v-0.2v-1.8c-0.1-0.2-0.2-0.3-0.3-0.4c-0.3-0.2-0.7-0.5-1.3-0.5c-0.9-0.1-1.4,0.1-1.9,0.3
				c-0.5,0.2-0.8,0.5-1.3,0.7c-1.2,0.5-2.4,0.7-3.3,0.7c-0.5,0-1,0-1.4,0L37.2,55.5z M37.9,32.2c-0.5,0.3-0.8,0.5-1,0.6v21.8
				l1.4-2.1V31.9C38.2,32,38.1,32.2,37.9,32.2 M49,52.3v1.8c0,0.1,0,0.1,0,0.2s0.1,0.4,0.4,0.7c0.3,0.3,0.6,0.4,0.7,0.5h10L58.4,53
				c-0.4,0-0.9,0.1-1.4,0c-0.9,0-2.1-0.2-3.3-0.7c-0.4-0.2-0.8-0.5-1.3-0.7c-0.4-0.2-1-0.3-1.9-0.3c-0.6,0-1.1,0.3-1.3,0.5
				C49.2,52,49.1,52.1,49,52.3 M40.2,30.6c0.9,0,2.1-0.2,3.1-0.7c0.4-0.2,0.8-0.5,1.3-0.7s1.2-0.4,2.2-0.3c0.8,0.1,1.4,0.4,1.7,0.7
				c0.1,0.1,0.2,0.1,0.2,0.2c0.1-0.1,0.1-0.1,0.2-0.2c0.3-0.3,0.9-0.6,1.7-0.7c1-0.1,1.7,0.1,2.2,0.3s0.8,0.5,1.3,0.7
				c1.1,0.5,2.2,0.6,3.1,0.7c0.8,0,1.7-0.1,1.8-0.1c0,0.2,0.1,0.7,0.8,1.1c0.4,0.3,1.3,0.8,1.3,0.8V56H50.3c-0.2,0-0.3,0-0.4-0.1
				c-0.2-0.1-0.5-0.3-0.8-0.6c-0.1-0.1-0.2-0.3-0.3-0.4c-0.1,0.1-0.2,0.2-0.3,0.4c-0.3,0.3-0.6,0.5-0.8,0.6c-0.1,0-0.2,0.1-0.3,0.1
				H36.5V32.5c0,0,0.9-0.5,1.3-0.8c0.7-0.5,0.8-0.9,0.8-1.1C38.5,30.6,39.3,30.7,40.2,30.6"/>
			<path class="st1" d="M37.2,55.5h10c0.3-0.1,0.5-0.2,0.7-0.5c0.3-0.3,0.4-0.5,0.4-0.7v-2c-0.1-0.2-0.2-0.3-0.3-0.4
				c-0.3-0.2-0.7-0.5-1.3-0.5c-0.9-0.1-1.4,0.1-1.9,0.3c-0.5,0.2-0.8,0.5-1.3,0.7c-1.2,0.5-2.4,0.7-3.3,0.7c-0.5,0-1,0-1.4,0
				L37.2,55.5z M60.1,55.5h-10c-0.3-0.1-0.5-0.2-0.7-0.5c-0.3-0.3-0.4-0.5-0.4-0.7v-2c0.1-0.2,0.2-0.3,0.3-0.4
				c0.3-0.2,0.7-0.5,1.3-0.5c0.9-0.1,1.4,0.1,1.9,0.3c0.5,0.2,0.8,0.5,1.3,0.7c1.2,0.5,2.4,0.7,3.3,0.7c0.5,0,1,0,1.4,0L60.1,55.5z
				 M59.4,32.2c0.5,0.3,0.8,0.5,1,0.6v21.8L59,52.5V31.9C59.1,32,59.2,32.2,59.4,32.2 M37.9,32.2c-0.5,0.3-0.8,0.5-1,0.6v21.8
				l1.4-2.1V31.9C38.2,32,38.1,32.2,37.9,32.2"/>
			<path class="st2" d="M49,51.3V30.5c0,0,0.4-0.9,1.7-0.9c1.8-0.1,2.4,0.7,3.2,1c2,0.9,4.4,0.6,4.4,0.6v21.1c0,0-2.5,0.2-4.4-0.7
				c-0.8-0.4-1.4-1.1-3.2-1C49.5,50.8,49,51.3,49,51.3 M48.3,51.3V30.5c0,0-0.4-0.9-1.7-0.9c-1.8-0.1-2.4,0.7-3.2,1
				c-2,0.9-4.4,0.6-4.4,0.6v21.1c0,0,2.5,0.2,4.4-0.7c0.8-0.4,1.4-1.1,3.2-1C47.8,50.8,48.3,51.3,48.3,51.3"/>
			<path d="M57.4,50c0,0-0.9,0.3-2.5-0.2c-1.3-0.4-2-1.1-3-1.2c-1.1-0.1-2.1,0.2-2.1,0.2s0.9-0.7,1.9-0.7c1.4,0,2.2,0.7,3.4,1.2
				C56.6,49.9,57.4,50,57.4,50 M57.4,48c0,0-0.9,0.3-2.5-0.2c-1.3-0.4-2-1.1-3-1.2c-1.1-0.1-2.1,0.2-2.1,0.2s0.9-0.7,1.9-0.7
				c1.4,0,2.2,0.7,3.4,1.2C56.6,47.8,57.4,48,57.4,48 M57.4,45.9c0,0-0.9,0.3-2.5-0.2c-1.3-0.4-2-1.1-3-1.2
				c-1.1-0.1-2.1,0.2-2.1,0.2s0.9-0.7,1.9-0.7c1.4,0,2.2,0.7,3.4,1.2C56.6,45.8,57.4,45.9,57.4,45.9 M57.4,43.9c0,0-0.9,0.3-2.5-0.2
				c-1.3-0.4-2-1.1-3-1.2c-1.1-0.1-2.1,0.2-2.1,0.2s0.9-0.7,1.9-0.7c1.4,0,2.2,0.8,3.4,1.2C56.6,43.7,57.4,43.9,57.4,43.9
				 M57.4,41.9c0,0-0.9,0.3-2.5-0.2c-1.3-0.4-2-1.1-3-1.2c-1.1-0.1-2.1,0.2-2.1,0.2s0.9-0.7,1.9-0.7c1.4,0,2.2,0.7,3.4,1.2
				C56.6,41.7,57.4,41.9,57.4,41.9 M57.4,39.8c0,0-0.9,0.3-2.5-0.2c-1.3-0.4-2-1.1-3-1.2c-1.1-0.1-2.1,0.2-2.1,0.2s0.9-0.7,1.9-0.7
				c1.4,0,2.2,0.7,3.4,1.2C56.6,39.7,57.4,39.8,57.4,39.8 M57.4,37.8c0,0-0.9,0.3-2.5-0.2c-1.3-0.4-2-1.1-3-1.2
				c-1.1-0.1-2.1,0.2-2.1,0.2s0.9-0.7,1.9-0.7c1.4,0,2.2,0.7,3.4,1.2C56.6,37.6,57.4,37.8,57.4,37.8 M57.4,35.7c0,0-0.9,0.3-2.5-0.2
				c-1.3-0.4-2-1.1-3-1.2c-1.1-0.1-2.1,0.2-2.1,0.2s0.9-0.7,1.9-0.7c1.4,0,2.2,0.7,3.4,1.2C56.6,35.6,57.4,35.7,57.4,35.7
				 M57.4,33.7c0,0-0.9,0.3-2.5-0.2c-1.3-0.4-2-1.1-3-1.2c-1.1-0.1-2.1,0.2-2.1,0.2s0.9-0.7,1.9-0.7c1.4,0,2.2,0.7,3.4,1.2
				C56.6,33.5,57.4,33.7,57.4,33.7 M39.9,50c0,0,0.9,0.3,2.5-0.2c1.3-0.4,2-1.1,3-1.2c1.1-0.1,2.1,0.2,2.1,0.2s-0.9-0.7-1.9-0.7
				c-1.4,0-2.2,0.7-3.4,1.2C40.7,49.9,39.9,50,39.9,50 M39.9,48c0,0,0.9,0.3,2.5-0.2c1.3-0.4,2-1.1,3-1.2c1.1-0.1,2.1,0.2,2.1,0.2
				s-0.9-0.7-1.9-0.7c-1.4,0-2.2,0.7-3.4,1.2C40.7,47.8,39.9,48,39.9,48 M39.9,45.9c0,0,0.9,0.3,2.5-0.2c1.3-0.4,2-1.1,3-1.2
				c1.1-0.1,2.1,0.2,2.1,0.2S46.6,44,45.6,44c-1.4,0-2.2,0.7-3.4,1.2C40.7,45.8,39.9,45.9,39.9,45.9 M39.9,43.9c0,0,0.9,0.3,2.5-0.2
				c1.3-0.4,2-1.1,3-1.2c1.1-0.1,2.1,0.2,2.1,0.2S46.6,42,45.6,42c-1.4,0-2.2,0.8-3.4,1.2C40.7,43.7,39.9,43.9,39.9,43.9 M39.9,41.9
				c0,0,0.9,0.3,2.5-0.2c1.3-0.4,2-1.1,3-1.2c1.1-0.1,2.1,0.2,2.1,0.2S46.6,40,45.6,40c-1.4,0-2.2,0.7-3.4,1.2
				C40.7,41.7,39.9,41.9,39.9,41.9 M39.9,39.8c0,0,0.9,0.3,2.5-0.2c1.3-0.4,2-1.1,3-1.2c1.1-0.1,2.1,0.2,2.1,0.2s-0.9-0.7-1.9-0.7
				c-1.4,0-2.2,0.7-3.4,1.2C40.7,39.7,39.9,39.8,39.9,39.8 M39.9,37.8c0,0,0.9,0.3,2.5-0.2c1.3-0.4,2-1.1,3-1.2
				c1.1-0.1,2.1,0.2,2.1,0.2s-0.9-0.7-1.9-0.7c-1.4,0-2.2,0.7-3.4,1.2C40.7,37.6,39.9,37.8,39.9,37.8 M39.9,35.7
				c0,0,0.9,0.3,2.5-0.2c1.3-0.4,2-1.1,3-1.2c1.1-0.1,2.1,0.2,2.1,0.2s-0.9-0.7-1.9-0.7c-1.4,0-2.2,0.7-3.4,1.2
				C40.7,35.6,39.9,35.7,39.9,35.7 M39.9,33.7c0,0,0.9,0.3,2.5-0.2c1.3-0.4,2-1.1,3-1.2c1.1-0.1,2.1,0.2,2.1,0.2s-0.9-0.7-1.9-0.7
				c-1.4,0-2.2,0.7-3.4,1.2C40.7,33.5,39.9,33.7,39.9,33.7"/>
		</g>
	</g>
</g>
</svg>
